<svg xmlns="http://www.w3.org/2000/svg" viewBox="0 0 1784.5 445.07"><defs><style>.cls-1{fill:#fab94b;}</style></defs><g id="Capa_2" data-name="Capa 2"><g id="Capa_1-2" data-name="Capa 1"><path class="cls-1" d="M120.34,444.75q-15.11,0-30.45-1T59.68,441.1Q44.82,439.39,30.94,437T5.36,431.59V364.85q15.59,1.47,34.59,2.44t38.73,1.46q19.72.5,37.27.49,17.05,0,29-2.68t18.27-9.26q6.33-6.57,6.33-18.27v-9.26q0-13.15-8.52-20T139.34,303H111.08q-54.57,0-82.82-23.88T0,198.72V181.67Q0,128.57,31.18,103t89.64-25.57a380.31,380.31,0,0,1,41.42,2.19q20,2.2,38,5.11t31.66,6.34v66.26q-22.41-1.47-50.18-2.92t-50.67-1.47a120.9,120.9,0,0,0-26.79,2.68q-11.7,2.68-18,9.75t-6.33,20.7v6.82q0,15.62,9,22.9t27.53,7.31h33.62q33.6,0,55.53,12.42a80.25,80.25,0,0,1,32.89,34.11q11,21.67,11,49v18q0,44.82-15.83,68.2t-44.82,31.67Q159.8,444.75,120.34,444.75Z"/><path class="cls-1" d="M301.35,441.83V40.17H474.57a192.75,192.75,0,0,1,41.14,4.6,93.08,93.08,0,0,1,38.71,18.67q17.58,14.09,28.42,42.5t10.82,75.51q0,47.1-10.82,76.06T555,301.08a91.47,91.47,0,0,1-37.08,19.76,156,156,0,0,1-39,5.14q-9.75,0-21.66-1.08t-23.82-2.7q-11.91-1.63-21.92-3.52T395,316.24V441.83ZM395,242.08h69.29q12.45,0,20.3-6.49t11.64-19.49Q500,203.11,500,182q0-20-4.06-32.75T484.32,130.3q-7.59-6.23-19.49-6.23H395Z"/><path class="cls-1" d="M615.32,441.83,749.89,0H878.5l134.58,441.83H906.49l-22.63-80.39H743.34l-22,80.39ZM767.15,269.14H860l-46.44-181Z"/><path class="cls-1" d="M1054.76,441.83V0h103V441.83Z"/><path class="cls-1" d="M1361.24,445.07q-34.63,0-61.44-8.12a98.89,98.89,0,0,1-46-29.77q-19.21-21.65-29.23-62.25t-10-105q0-62.8,10.55-102.59t29.78-61.71A101.87,101.87,0,0,1,1301.16,45q27.06-8.65,60.63-8.66A428.29,428.29,0,0,1,1417,39.63a386.1,386.1,0,0,1,43.31,7.85A226.88,226.88,0,0,1,1490.62,57v72.53q-10.29-2.14-26.53-4.33t-37.34-3.52q-21.12-1.34-44.93-1.35-20,0-34.38,4.34a40.63,40.63,0,0,0-22.74,17q-8.4,12.74-12.45,36.54t-4.06,62.25q0,36.29,3.25,60.09t11.37,36.81a44.17,44.17,0,0,0,22.47,18.41q14.34,5.42,37.08,5.41,41.13,0,66.85-1.62t41.41-3.79v72.53a190,190,0,0,1-32.48,8.94q-18.41,3.52-42.22,5.68T1361.24,445.07Z"/><path class="cls-1" d="M1632,444.75a183.4,183.4,0,0,1-27.52-2.44A91.35,91.35,0,0,1,1574,431.84q-14.62-8-24.36-24.85t-9.75-45.55V167.05q0-25.32,8-42.38t20.47-26.56a79.13,79.13,0,0,1,28-13.64,117.88,117.88,0,0,1,30.2-4.13q39,0,67.72,1.21T1745,84.23q21.93,1.47,39.46,2.93v71.12H1652q-13.15,0-20.46,6.09t-7.31,19.25v39.94l136.41,4.88V294.7l-136.41,4.38v38q0,10.73,3.41,16.81a21.42,21.42,0,0,0,9.25,9,27.93,27.93,0,0,0,12.67,2.93h135v70.64q-21.45,2.44-47.74,4.38t-53.35,2.68Q1656.38,444.27,1632,444.75Z"/></g></g></svg>